<?xml version="1.0" standalone="no"?>
<!DOCTYPE svg PUBLIC "-//W3C//DTD SVG 20010904//EN"
 "http://www.w3.org/TR/2001/REC-SVG-20010904/DTD/svg10.dtd">
<svg version="1.0" xmlns="http://www.w3.org/2000/svg"
 width="512.000000pt" height="512.000000pt" viewBox="0 0 512.000000 512.000000"
 preserveAspectRatio="xMidYMid meet">

<g transform="translate(0.000000,512.000000) scale(0.100000,-0.100000)"
fill="#000000" stroke="none">
<path d="M2350 4944 c-475 -76 -886 -434 -1033 -900 -61 -192 -60 -181 -64
-809 l-5 -580 -30 60 c-17 33 -38 65 -47 72 -27 21 -75 15 -100 -11 -26 -28
-26 -48 4 -176 53 -231 -72 -485 -293 -597 -87 -44 -109 -76 -88 -128 19 -45
52 -53 138 -30 76 21 204 26 271 12 l37 -8 -32 -47 c-60 -90 -243 -253 -462
-416 -136 -101 -213 -183 -259 -276 -52 -103 -71 -200 -64 -329 10 -201 73
-367 160 -427 73 -51 126 -57 411 -50 138 3 778 8 1421 11 1465 6 1787 12
1838 32 34 14 39 14 57 -2 10 -9 35 -50 55 -91 20 -41 45 -79 55 -84 32 -17
70 -11 97 16 28 28 28 47 -2 154 -32 115 -14 264 47 384 43 86 154 194 240
235 73 34 98 61 98 101 0 26 -30 62 -61 73 -9 3 -45 -4 -80 -15 -86 -27 -241
-28 -319 -2 -52 18 -56 22 -68 64 -73 253 -137 400 -255 577 -77 115 -110 185
-140 293 -20 73 -21 102 -27 945 -7 945 -5 901 -65 1081 -118 351 -408 654
-760 794 -195 78 -468 108 -675 74z m356 -155 c372 -51 703 -291 869 -627 40
-83 70 -163 96 -262 9 -32 14 -292 19 -920 6 -854 7 -877 28 -958 32 -122 72
-208 160 -345 44 -67 93 -149 110 -182 30 -61 82 -184 82 -194 -1 -14 -44 50
-76 112 -38 74 -67 94 -113 79 -14 -4 -33 -23 -43 -41 -15 -31 -15 -36 3 -99
42 -148 32 -277 -33 -410 -45 -91 -149 -195 -248 -247 -83 -44 -107 -76 -91
-119 6 -14 22 -33 36 -42 24 -16 31 -16 120 6 125 30 237 25 345 -16 l75 -29
-115 -6 c-63 -3 -439 -7 -835 -8 -396 -2 -734 -4 -751 -6 -16 -1 -415 -4 -886
-6 -855 -4 -857 -4 -884 17 -70 52 -116 316 -79 457 35 133 81 192 253 319
241 179 439 363 507 470 17 27 33 48 37 48 4 0 39 -29 77 -65 50 -48 80 -87
110 -145 23 -44 50 -84 61 -90 36 -19 77 -12 100 17 24 31 23 52 -5 153 -62
222 65 501 277 609 l66 33 73 -56 c93 -71 211 -130 314 -157 103 -26 268 -28
375 -4 215 49 428 203 563 407 73 110 111 189 152 311 60 181 70 249 70 477 0
178 -3 219 -23 309 -104 461 -399 800 -770 885 -101 23 -259 21 -358 -4 -321
-82 -581 -351 -709 -734 -133 -397 -80 -866 135 -1209 68 -108 68 -107 -54
-114 -97 -6 -189 13 -277 57 l-60 31 4 652 c4 699 3 684 58 857 125 397 485
716 879 780 41 6 82 13 90 15 38 7 196 4 266 -6z m9 -484 c269 -69 494 -310
598 -640 23 -74 48 -185 41 -185 -1 0 -23 31 -48 69 -132 198 -323 342 -533
403 -65 19 -101 23 -218 22 -129 -1 -147 -3 -235 -32 -205 -68 -361 -191 -500
-394 -28 -39 -50 -65 -50 -56 0 37 53 214 88 296 112 261 327 463 549 516 79
19 235 20 308 1z m-21 -500 c271 -57 502 -296 618 -638 43 -127 42 -174 -8
-318 -186 -540 -663 -780 -1074 -539 -181 106 -335 311 -416 555 -41 124 -42
172 -4 290 81 251 222 446 404 560 153 95 314 125 480 90z m-1396 -1430 c70
-50 187 -102 262 -116 36 -7 67 -14 69 -15 2 -2 -13 -25 -33 -52 -60 -83 -126
-246 -126 -314 0 -26 -7 -23 -79 27 -71 49 -190 99 -263 110 -27 4 -48 10 -48
14 0 3 20 34 44 69 51 73 89 161 107 250 7 34 14 62 16 62 2 0 25 -16 51 -35z
m2793 -1316 c78 -53 154 -86 246 -107 l73 -17 -36 -50 c-62 -86 -101 -179
-129 -308 l-6 -28 -47 34 c-81 59 -200 109 -314 132 l-28 5 37 48 c50 65 98
170 119 258 10 41 19 74 21 74 2 0 31 -18 64 -41z"/>
<path d="M2864 1976 c-12 -9 -42 -58 -68 -110 -132 -273 -368 -426 -656 -426
-83 0 -101 -3 -124 -21 -37 -29 -37 -89 2 -119 25 -21 34 -22 157 -17 148 6
235 27 348 83 190 95 333 243 423 440 38 81 42 122 17 153 -24 28 -72 36 -99
17z"/>
<path d="M3228 1980 c-9 -6 -47 -74 -86 -152 -89 -182 -169 -295 -307 -433
-212 -213 -469 -352 -768 -417 -86 -18 -134 -22 -302 -22 -209 0 -314 12 -448
54 -113 36 -167 18 -167 -54 0 -48 25 -72 103 -95 173 -52 280 -66 512 -66
190 1 234 4 325 24 365 78 700 271 932 537 95 108 207 278 268 406 65 137 71
168 37 202 -27 27 -68 33 -99 16z"/>
<path d="M2103 3399 c-80 -39 -152 -144 -153 -220 0 -45 33 -79 77 -79 40 0
66 24 87 82 39 106 131 106 188 0 30 -55 105 -56 134 0 14 26 14 38 4 71 -14
47 -80 122 -132 148 -52 27 -149 26 -205 -2z"/>
<path d="M2799 3395 c-58 -30 -113 -93 -133 -153 -21 -61 -20 -84 5 -116 16
-20 29 -26 59 -26 30 0 43 6 59 26 12 15 21 35 21 45 0 10 14 34 31 54 25 28
38 35 68 35 37 0 81 -31 81 -57 0 -24 50 -63 80 -63 40 0 80 39 80 77 0 51
-59 134 -120 170 -47 29 -63 33 -120 33 -49 -1 -77 -7 -111 -25z"/>
</g>
</svg>
