<?xml version="1.0" standalone="no"?>
<!DOCTYPE svg PUBLIC "-//W3C//DTD SVG 20010904//EN"
 "http://www.w3.org/TR/2001/REC-SVG-20010904/DTD/svg10.dtd">
<svg version="1.0" xmlns="http://www.w3.org/2000/svg"
 width="512.000000pt" height="512.000000pt" viewBox="0 0 512.000000 512.000000"
 preserveAspectRatio="xMidYMid meet">

<g transform="translate(0.000000,512.000000) scale(0.100000,-0.100000)"
fill="#000000" stroke="none">
<path d="M1375 4540 c-687 -302 -1264 -558 -1282 -569 -18 -11 -40 -35 -49
-52 -37 -73 -47 -48 423 -1120 243 -552 593 -1350 778 -1774 186 -424 347
-782 357 -798 27 -38 68 -57 123 -57 38 0 96 22 298 111 139 61 258 113 265
116 9 4 12 -9 12 -45 0 -46 3 -53 36 -81 51 -41 252 -143 354 -179 338 -118
704 -120 1040 -7 117 39 148 56 155 88 3 12 12 92 20 177 9 85 18 156 20 159
2 2 57 -29 120 -69 145 -90 163 -97 197 -79 45 24 194 157 266 238 303 338
491 730 572 1194 18 102 20 133 11 155 -7 17 -63 65 -146 126 -74 55 -135 101
-135 102 0 2 63 35 140 74 82 42 145 80 151 93 14 25 7 163 -16 292 -61 350
-193 674 -382 937 -92 129 -140 178 -173 178 -16 0 -87 -22 -159 -50 -72 -27
-134 -50 -139 -50 -5 0 -2 60 5 133 7 72 12 157 11 187 -3 55 -3 55 -58 92
-170 114 -412 204 -639 238 -63 9 -315 14 -400 7 -22 -2 -35 23 -182 356 -86
197 -165 368 -176 379 -29 32 -69 48 -120 47 -41 0 -236 -83 -1298 -549z
m1440 78 c76 -172 140 -320 142 -330 4 -12 -8 -20 -54 -32 -117 -34 -204 -69
-222 -92 -14 -18 -21 -57 -31 -166 -6 -79 -15 -155 -19 -170 l-6 -27 -128 79
c-84 53 -137 80 -156 80 -62 0 -292 -218 -435 -411 -39 -53 -75 -104 -81 -113
-5 -8 -169 -85 -364 -171 -195 -85 -363 -163 -373 -172 -10 -9 -18 -29 -18
-45 0 -17 80 -213 180 -440 l180 -409 5 -162 c5 -185 28 -370 50 -404 30 -45
97 -40 130 11 14 20 15 34 6 83 -15 84 -31 283 -31 386 l0 88 143 69 c154 73
191 104 203 166 16 84 -9 122 -143 226 -57 44 -103 85 -103 93 0 29 75 227
129 340 65 135 133 249 218 363 60 80 264 297 296 314 19 10 13 13 166 -81 70
-42 92 -51 131 -51 52 0 99 25 133 72 19 26 46 193 47 294 0 23 6 46 13 52 19
16 178 60 277 78 115 20 345 19 468 -2 131 -22 288 -73 408 -134 54 -28 102
-54 107 -59 4 -4 1 -75 -7 -158 -17 -170 -13 -205 35 -252 27 -28 83 -51 119
-51 8 0 72 22 142 49 l128 49 49 -67 c203 -276 333 -597 385 -952 9 -59 16
-112 16 -118 0 -6 -53 -37 -117 -70 -65 -32 -130 -72 -145 -88 -50 -53 -56
-135 -14 -198 8 -12 69 -62 136 -111 l122 -89 -7 -54 c-28 -226 -160 -587
-292 -801 -104 -168 -285 -384 -393 -470 l-38 -30 -102 64 c-148 94 -190 103
-267 56 -52 -31 -65 -70 -82 -240 l-16 -155 -80 -27 c-145 -48 -253 -63 -440
-62 -184 1 -292 17 -451 70 -84 27 -277 119 -293 138 -6 7 -5 63 5 156 16 162
12 198 -23 241 -62 73 -119 76 -279 13 l-118 -46 -29 33 c-86 102 -222 339
-277 484 -25 67 -59 105 -95 105 -36 0 -76 -39 -77 -75 -2 -96 190 -452 344
-640 81 -98 82 -99 255 -31 80 31 147 55 149 53 1 -1 0 -21 -3 -43 l-5 -40
-294 -129 c-162 -70 -296 -126 -298 -124 -7 8 -1536 3499 -1536 3506 0 8 2455
1090 2476 1092 6 1 73 -140 149 -311z m-1170 -1520 c-49 -110 -88 -216 -114
-309 -17 -63 -19 -82 -10 -102 7 -14 65 -67 130 -118 66 -50 119 -95 119 -98
0 -9 -229 -116 -234 -110 -2 2 -67 147 -144 321 l-139 317 211 94 c116 51 212
93 214 91 2 -1 -13 -40 -33 -86z"/>
<path d="M2470 3244 c-135 -29 -253 -111 -299 -208 -28 -60 -29 -163 -2 -223
45 -98 169 -195 305 -239 110 -35 271 -44 379 -20 259 58 389 250 299 441 -92
194 -406 309 -682 249z m340 -173 c118 -37 210 -121 210 -190 0 -160 -316
-237 -547 -135 -107 47 -163 110 -163 181 0 69 65 125 180 158 76 21 233 14
320 -14z"/>
<path d="M3830 3115 c-210 -47 -342 -186 -327 -345 12 -141 131 -261 322 -326
104 -35 284 -45 388 -20 197 46 321 170 321 320 -1 88 -32 152 -110 225 -67
63 -153 110 -250 136 -84 23 -263 28 -344 10z m256 -154 c183 -35 316 -150
284 -246 -14 -43 -54 -79 -124 -111 -48 -22 -79 -28 -156 -32 -149 -7 -273 28
-354 99 -84 74 -98 134 -44 194 74 85 240 125 394 96z"/>
<path d="M2834 2110 c-54 -21 -67 -90 -38 -191 92 -316 567 -430 821 -196 58
53 87 100 108 172 19 64 15 95 -17 125 -48 44 -112 14 -129 -60 -35 -159 -232
-242 -432 -180 -116 36 -206 139 -207 237 0 56 -7 71 -41 88 -32 17 -36 17
-65 5z"/>
<path d="M2600 1459 c-187 -33 -257 -155 -180 -317 104 -220 440 -403 771
-419 345 -17 707 148 777 356 46 134 -45 237 -254 290 -242 61 -954 119 -1114
90z m600 -179 c440 -43 620 -86 620 -146 0 -8 -21 -37 -46 -64 -55 -59 -165
-118 -289 -156 -80 -24 -106 -27 -240 -28 -163 -1 -226 11 -356 64 -126 52
-256 148 -308 227 -31 46 -40 96 -21 108 48 29 317 28 640 -5z"/>
</g>
</svg>
